PathFileType	4	(x/y/z)	S02_P20_T16
DataRate	CameraRate	NumFrames	NumMarkers	Units	OrigDataRate	OrigDataStartFrame	OrigNumFrames
240	240	4	51	mm	240	86	342
Frame#	Time	Sternum			R.Acromium			L.Acromium			Top.Head			R.ASIS			L.ASIS			R.PSIS			L.PSIS			R.Great.Tro			L.Great.Tro			R.Iliac.Crest			L.Iliac.Crest			V.Sacral			R.Thigh.Upper.Post			R.Thigh.Lower.Ant			R.Thigh.Lower.Post			R.Thigh.Upper.Ant			R.Knee.Lat			R.Knee.Med			R.Shank.Upper.Post			R.Shank.Lower.Ant			R.Shank.Lower.Post			R.Shank.Upper.Ant			R.Ankle.Lat			R.Ankle.Med			R.Heel.Upper			R.Heel.Med			R.Heel.Lat			R.Toe.Lat			R.Toe.Med			R.Toe.Tip			L.Thigh.Upper.Post			L.Thigh.Lower.Ant			L.Thigh.Lower.Post			L.Thigh.Upper.Ant			L.Knee.Lat			L.Knee.Med			L.Shank.Upper.Post			L.Shank.Lower.Ant			L.Shank.Lower.Post			L.Shank.Upper.Ant			L.Ankle.Lat			L.Ankle.Med			L.Heel.Upper			L.Heel.Med			L.Heel.Lat			L.Toe.Lat			L.Toe.Med			L.Toe.Tip			Cervical.Spine			Back			
		X1	Y1	Z1	X2	Y2	Z2	X3	Y3	Z3	X4	Y4	Z4	X5	Y5	Z5	X6	Y6	Z6	X7	Y7	Z7	X8	Y8	Z8	X9	Y9	Z9	X10	Y10	Z10	X11	Y11	Z11	X12	Y12	Z12	X13	Y13	Z13	X14	Y14	Z14	X15	Y15	Z15	X16	Y16	Z16	X17	Y17	Z17	X18	Y18	Z18	X19	Y19	Z19	X20	Y20	Z20	X21	Y21	Z21	X22	Y22	Z22	X23	Y23	Z23	X24	Y24	Z24	X25	Y25	Z25	X26	Y26	Z26	X27	Y27	Z27	X28	Y28	Z28	X29	Y29	Z29	X30	Y30	Z30	X31	Y31	Z31	X32	Y32	Z32	X33	Y33	Z33	X34	Y34	Z34	X35	Y35	Z35	X36	Y36	Z36	X37	Y37	Z37	X38	Y38	Z38	X39	Y39	Z39	X40	Y40	Z40	X41	Y41	Z41	X42	Y42	Z42	X43	Y43	Z43	X44	Y44	Z44	X45	Y45	Z45	X46	Y46	Z46	X47	Y47	Z47	X48	Y48	Z48	X49	Y49	Z49	X50	Y50	Z50	X51	Y51	Z51	

86	0.35417	-755.99	1108.5	307.5	-880.12	1344.8	435.38	-843.98	1344.6	143.99	-796.98	1627	290	-801.62	939.82	399.84	-784.72	919.17	192.57	-1006.6	971.44	343.84	-1013.2	976.35	271.29	-856.77	829.86	496.72	-922.56	841.4	106.69	-901.5	986.39	454.62	-905.19	971.08	125.93	-1035.8	925.47	302.2	-762.3	641.24	487.94	-676.6	594.91	456.29	-737.65	556.23	467.63	-705.66	678.37	473.34	-689.74	495.13	454.83	-684.48	484.43	313.25	-760.77	291.08	433.33	-684.3	211.51	424.47	-752.29	218.45	425.08	-688.83	279.19	439.56	-733.83	120.89	415.15	-713.69	139.7	332.58	-787.99	112.31	352.74	-770.68	83.932	323.07	-789.67	77.016	384.11	-636.3	57.184	444.5	-590.62	63.949	343.4	-550.56	82.029	407.34	-986.18	621.61	139.07	-925.14	529.61	146.92	-1002.9	535.02	162.9	-915.39	621.93	123.95	-959.43	452.75	158.69	-965.08	454.02	297.83	-1070.9	302.25	161.06	-1021.8	203.17	180.61	-1091.9	229.62	182.38	-1013.3	277.16	162.77	-1086	109.33	196.78	-1074.8	103.22	277.88	-1148.2	77.321	230.37	-1141.2	51.67	263.19	-1144.6	50.056	201.63	-979.11	34.854	171.98	-957.41	44.102	281.62	-896.06	56.465	234.52	-934.45	1403.2	280.56	-1011	1152.5	276.08
87	0.35833	-750.69	1107.2	307.75	-875.05	1343.7	435.54	-838.04	1343.3	144.28	-791.62	1625.9	290.43	-796.02	938.79	399.98	-779.58	917.96	192.64	-1001.1	970.16	344.41	-1008.2	975.1	271.87	-850.69	829.01	497.04	-917.99	840.85	106.72	-895.98	985.3	454.94	-900.25	969.86	126.28	-1030.5	924.14	302.88	-756.15	640.26	487.84	-670.87	593.89	455.32	-731.67	555.18	467.52	-699.85	677.42	472.3	-683.71	494.24	454.35	-679.69	483.06	312.5	-750.35	288.64	433.47	-672.04	210.83	424.55	-740.14	216.19	425.26	-678.24	278.49	439.71	-719.27	118.77	415.45	-699.48	137.79	332.83	-773.41	108.72	353.15	-755.39	80.686	323.51	-774.13	73.432	384.59	-620.18	57.424	444.83	-574.89	65.051	343.62	-535.15	84.232	407.46	-982.8	621.57	139.33	-922.38	529.14	146.94	-1000.1	535.09	163.15	-912.03	621.39	124.01	-957.13	452.44	158.69	-962.77	453.72	297.83	-1069.5	302.59	161.08	-1021	203.16	180.67	-1090.9	230.03	182.44	-1012.1	277.13	162.81	-1085.8	109.62	196.85	-1074.5	103.44	277.99	-1148.1	77.66	230.43	-1141.1	52.027	263.26	-1144.6	50.399	201.71	-979.09	34.835	171.99	-957.35	44.053	281.63	-896.01	56.319	234.5	-929.07	1402.2	280.66	-1005.7	1151.4	275.99
88	0.3625	-745.37	1105.9	308.02	-869.94	1342.5	435.71	-832.09	1342.1	144.6	-786.24	1624.8	290.87	-790.4	937.69	400.12	-774.42	916.68	192.71	-995.67	968.84	344.99	-1003.3	973.82	272.46	-844.61	828.04	497.35	-913.41	840.27	106.78	-890.42	984.15	455.27	-895.3	968.59	126.63	-1025.1	922.77	303.55	-749.96	639.2	487.78	-665.13	592.79	454.33	-725.66	554.06	467.47	-694.01	676.38	471.24	-677.69	493.24	453.91	-674.95	481.57	311.76	-740.14	286.25	433.61	-660.1	210.18	424.62	-728.26	214.01	425.44	-667.91	277.83	439.88	-705.05	116.77	415.72	-685.64	136	333.07	-759.17	105.3	353.56	-740.46	77.609	323.93	-758.94	70.02	385.06	-604.47	57.752	445.1	-559.62	66.235	343.75	-520.18	86.483	407.46	-979.31	621.46	139.59	-919.5	528.61	146.97	-997.15	535.09	163.4	-908.58	620.81	124.07	-954.7	452.08	158.71	-960.32	453.38	297.83	-1068	302.91	161.1	-1020.1	203.12	180.72	-1089.8	230.44	182.5	-1010.7	277.06	162.84	-1085.5	109.92	196.91	-1074.2	103.67	278.1	-1147.9	78.013	230.48	-1141	52.399	263.33	-1144.5	50.752	201.78	-979.07	34.814	171.99	-957.3	44.002	281.64	-895.95	56.173	234.49	-923.68	1401.1	280.77	-1000.4	1150.3	275.94
89	0.36667	-740.02	1104.5	308.29	-864.79	1341.2	435.9	-826.14	1340.7	144.94	-780.86	1623.6	291.33	-784.74	936.53	400.27	-769.25	915.34	192.77	-990.2	967.47	345.58	-998.35	972.51	273.06	-838.51	826.95	497.64	-908.84	839.65	106.85	-884.83	982.94	455.64	-890.34	967.27	126.98	-1019.8	921.36	304.23	-743.71	638.09	487.76	-659.38	591.6	453.34	-719.62	552.88	467.46	-688.15	675.27	470.14	-671.69	492.15	453.51	-670.24	479.96	311.03	-730.16	283.94	433.75	-648.48	209.57	424.67	-716.69	211.93	425.61	-657.83	277.18	440.06	-691.21	114.89	415.96	-672.23	134.31	333.28	-745.3	102.03	353.97	-725.95	74.696	324.34	-744.13	66.779	385.51	-589.2	58.15	445.29	-544.85	67.475	343.79	-505.7	88.754	407.36	-975.73	621.28	139.84	-916.5	528.04	146.99	-994.06	535.03	163.65	-905.03	620.18	124.13	-952.14	451.67	158.74	-957.72	452.99	297.85	-1066.3	303.22	161.12	-1019.1	203.07	180.78	-1088.7	230.85	182.54	-1009.3	276.96	162.88	-1085.2	110.23	196.96	-1073.9	103.91	278.19	-1147.8	78.383	230.51	-1140.9	52.788	263.38	-1144.5	51.12	201.84	-979.06	34.789	172	-957.24	43.951	281.65	-895.89	56.029	234.48	-918.3	1400	280.91	-995.03	1149.2	275.92
